<svg xmlns="http://www.w3.org/2000/svg" width="924" height="202" viewBox="0 0 924 202">
  <defs>
    <style>
      .cls-1 {
        fill: #fff;
        fill-rule: evenodd;
      }
    </style>
  </defs>
  <path class="cls-1" d="M462.5,0A157.5,157.5,0,0,1,620,157.5c0,7.272-1.447,21.439-1.447,21.439l-311.806,2.1S305,165.5,305,157.5A157.5,157.5,0,0,1,462.5,0Z"/>
  <path id="Ellipse_2_copy" data-name="Ellipse 2 copy" class="cls-1" d="M462,170c490.981,0,889,98.274,889,219.5S952.981,609,462,609s-889-98.274-889-219.5S-28.981,170,462,170Zm0,9.175c662.82,0,1200.15,132.669,1200.15,296.325S1124.82,771.825,462,771.825-738.15,639.155-738.15,475.5-200.824,179.175,462,179.175Z"/>
</svg>
